<?xml version="1.0" encoding="utf-8"?>
<!-- Generator: Adobe Illustrator 22.1.0, SVG Export Plug-In . SVG Version: 6.00 Build 0)  -->
<svg version="1.1" xmlns="http://www.w3.org/2000/svg" xmlns:xlink="http://www.w3.org/1999/xlink" x="0px" y="0px"
	 viewBox="0 0 300 300" style="enable-background:new 0 0 300 300;" xml:space="preserve">
<style type="text/css">
	.st0{fill:#FEDB75;stroke:#000000;stroke-miterlimit:10;}
	.st1{fill:#FFFFFF;stroke:#000000;stroke-miterlimit:10;}

	#details {
		display:block;
	}

	@media screen and (max-width: 100px) {
		#details {
			display: none;
		}
	}
	
</style>
<g id="axe">
	<circle id="circle_8_" class="st0" cx="149.7" cy="149.8" r="122.3"/>
	<path id="sharpEnd" class="st1" d="M197.9,172.8c-3.4-4.5-7.3-9.1-11.8-13.6c-15.3-15.5-31.3-24.4-45-29.6
		c7-15.1,13.7-30.1,20.7-45.2c13.9,7.1,30.7,13.6,50.6,17.4c6,1.1,11.8,2,17.5,2.5C219.3,127.2,208.6,150,197.9,172.8z"/>
	<path id="handle" class="st1" d="M95.7,227.9L95.7,227.9c-4.6-2.1-6.7-7.7-4.6-12.3l64.9-141c2.1-4.6,7.7-6.7,12.3-4.6l0,0
		c4.6,2.1,6.7,7.7,4.6,12.3L108,223.4C105.9,228,100.4,230.1,95.7,227.9z"/>
</g>
<g id="details">
	
		<rect id="dullEnd" x="114.9" y="97.8" transform="matrix(0.4187 -0.9081 0.9081 0.4187 -10.9469 185.8731)" class="st1" width="49.6" height="7.3"/>
</g>
</svg>
