<?xml version="1.0" encoding="utf-8"?>
<!-- Generator: Adobe Illustrator 22.1.0, SVG Export Plug-In . SVG Version: 6.00 Build 0)  -->
<svg version="1.1" id="canoeIcon" class="mainIcon" xmlns="http://www.w3.org/2000/svg" xmlns:xlink="http://www.w3.org/1999/xlink" x="0px" y="0px"
	 viewBox="0 0 300 300" style="enable-background:new 0 0 300 300;" xml:space="preserve">
<style type="text/css">
	.st0{fill:#FEDB75;stroke:#000000;stroke-miterlimit:10;}
	.st1{fill:#FFFFFF;stroke:#000000;stroke-miterlimit:10;}
	.st2{fill:none;stroke:#000000;stroke-miterlimit:10;}

	#details {
		display:block;
	}

	@media screen and (max-width: 100px) {
		#details {
			display: none;
		}
	}

</style>
<g id="canoe">
	<circle id="circle" class="st0" cx="150.8" cy="151" r="122.3"/>
	<path id="canoeBody" class="st1" d="M176.1,126c-0.1-0.5-0.2-1-0.3-1.5c-0.1-0.6-0.2-1.3-0.3-1.9c-5.3-26.5-16.7-43.1-23.9-50.1
		c-10.3,9.8-26.7,35.8-26.7,79.9s18.4,71.9,26.7,79.9c8.1-8,26.7-35.8,26.7-79.9C178.3,142.8,177.5,134,176.1,126z M166.1,159.8
		c0,6.6-5.4,12-12,12h-5.2c-6.6,0-12-5.4-12-12v-21.1c0-6.6,5.4-12,12-12h5.2c6.6,0,12,5.4,12,12V159.8z"/>
	<path id="paddle" class="st1" d="M219.1,106.4l-4.4-6.1c-1.5-2.1-4.5-2.6-6.6-1.1c-4,2.9-10,7.2-12,8.6c-0.4,0.3-0.7,0.7-0.8,1.2
		c-0.3,1.9-0.5,3.2-0.7,5.2c0,0.4-0.2,2-0.2,2.6l-107.1,77c-1,0.7-1.2,2.1-0.5,3.1s2.1,1.2,3.1,0.5l107.1-77
		c0.5,0.1,2.1,0.5,2.4,0.5c2.1,0.4,3.5,0.7,5.5,1c0.3,0,0.7-0.1,1-0.2L218,113C220.1,111.5,220.6,108.5,219.1,106.4z"/>
</g>
<g id="details">
	<line id="handleLine_2_" class="st2" x1="107.6" y1="178.7" x2="110.2" y2="182.6"/>
	<line id="handleLine_1_" class="st2" x1="110.4" y1="176.9" x2="113" y2="180.6"/>
	<line id="handleLine" class="st2" x1="113.2" y1="175" x2="115.8" y2="178.7"/>
	<path id="canoeLine" class="st2" d="M131,109.3c20.9,4.6,41.3,0.4,41.3,0.4"/>
</g>
</svg>
