<?xml version="1.0" encoding="utf-8"?>
<!-- Generator: Adobe Illustrator 22.1.0, SVG Export Plug-In . SVG Version: 6.00 Build 0)  -->
<svg version="1.1" id="compassIcon" class="mainIcon" xmlns="http://www.w3.org/2000/svg" xmlns:xlink="http://www.w3.org/1999/xlink" x="0px" y="0px"
	 viewBox="0 0 300 300" style="enable-background:new 0 0 300 300;" xml:space="preserve">
<style type="text/css">
	.st0{fill:#FEDB75;stroke:#000000;stroke-miterlimit:10;}
	.st1{fill:none;stroke:#000000;stroke-miterlimit:10;}
	.st2{fill:#FFFFFF;stroke:#000000;stroke-miterlimit:10;}

	#details {
		display:block;
	}

	@media screen and (max-width: 100px) {
		#details {
			display: none;
		}
	}

</style>
<g id="compass">
	<circle id="circle" class="st0" cx="150.7" cy="150.8" r="122.3"/>
	<circle id="hook" class="st1" cx="151.7" cy="70.8" r="11.1"/>
	<circle id="outerCircle" class="st2" cx="151.1" cy="149.7" r="71.2"/>
	<circle id="innerCircle" class="st2" cx="151.2" cy="149.7" r="61.7"/>
	<path id="needle" class="st1" d="M149.4,158.8l26.5,12l-16.7-24.3c0,0-1.2-1.9-2.2-2.7s-3.3-1.8-3.3-1.8l-26.6-12.2L144,154
		c0,0,1.3,2,2.3,2.8C147.2,157.6,148.4,158.3,149.4,158.8z"/>
</g>
<g id="details">
	<polygon id="south" class="st1" points="150.8,199.6 147.8,210.5 153.7,210.5 	"/>
	<polygon id="north" class="st1" points="150.7,99.1 147.6,88.1 153.6,88.1 	"/>
	<polygon id="west" class="st1" points="100.6,151.1 89.6,154.2 89.6,148.2 	"/>
	<polygon id="east" class="st1" points="201.7,150.9 212.7,153.9 212.7,148 	"/>
</g>
</svg>
