<?xml version="1.0" encoding="utf-8"?>
<!-- Generator: Adobe Illustrator 22.1.0, SVG Export Plug-In . SVG Version: 6.00 Build 0)  -->
<svg version="1.1" xmlns="http://www.w3.org/2000/svg" xmlns:xlink="http://www.w3.org/1999/xlink" x="0px" y="0px"
	 viewBox="0 0 300 300" style="enable-background:new 0 0 300 300;" xml:space="preserve">
<style type="text/css">
	.st0{fill:#FEDB75;stroke:#000000;stroke-miterlimit:10;}
	.st1{fill:#FFFFFF;stroke:#000000;stroke-miterlimit:10;}

	#details {
		display:block;
	}

	@media screen and (max-width: 100px) {
		#details {
			display: none;
		}
	}

</style>
<g id="fish">
	<circle id="circle_7_" class="st0" cx="149.5" cy="150.5" r="122.3"/>
	<path id="rightFish" class="st1" d="M154.8,81l-10.4-12l26-7l-2.8,15.5c11.8,10.2,28.9,31.1,37.5,64.6c2.4,9.4,3.8,18.1,4.5,26.1
		c0,0.5,0.1,1,0.1,1.5c0,0.6,0.1,1.3,0.1,1.9c1.5,26.9-5.4,45.9-10.7,54.5c-12.4-6.9-34.8-28-45.8-70.7
		C144.8,122.3,149.4,95.8,154.8,81z"/>
	<path id="leftFish" class="st1" d="M143.5,81.5l10.4-12l-26-7l2.8,15.5c-11.8,10.2-28.9,31.1-37.5,64.6c-2.4,9.4-3.8,18.1-4.5,26.1
		c0,0.5-0.1,1-0.1,1.5c0,0.6-0.1,1.3-0.1,1.9C87,199,93.9,218,99.2,226.6c12.4-6.9,34.8-28,45.8-70.7
		C153.4,122.8,148.8,96.2,143.5,81.5z"/>
	<path id="middleFish" class="st1" d="M155.6,81.8l6.4-23.4h-26.9l7.2,23.4c-8.7,12.9-19.8,37.5-19.5,72.1c0.1,9.7,1,18.4,2.5,26.4
		c0.1,0.5,0.2,1,0.3,1.5c0.1,0.6,0.2,1.3,0.4,1.9c5.5,26.4,17.1,42.9,24.5,49.9c10.2-9.9,26.4-36,25.9-80.2
		C176,119.1,164.6,94.6,155.6,81.8z"/>
</g>
<g id="details">
	<circle id="rightEye" class="st1" cx="98.5" cy="176.7" r="5.4"/>
	<circle id="middleEye" class="st1" cx="135.9" cy="172.9" r="5.4"/>
	<circle id="leftEye" class="st1" cx="200.4" cy="175.9" r="5.4"/>
</g>
</svg>
