<?xml version="1.0" encoding="utf-8"?>
<!-- Generator: Adobe Illustrator 22.1.0, SVG Export Plug-In . SVG Version: 6.00 Build 0)  -->
<svg version="1.1" xmlns="http://www.w3.org/2000/svg" xmlns:xlink="http://www.w3.org/1999/xlink" x="0px" y="0px"
	 viewBox="0 0 300 300" style="enable-background:new 0 0 300 300;" xml:space="preserve">
<style type="text/css">
	.st0{fill:#FEDB75;stroke:#000000;stroke-miterlimit:10;}
	.st1{fill:#FFFFFF;stroke:#000000;stroke-miterlimit:10;}

	#details {
		display:block;
	}

	@media screen and (max-width: 100px) {
		#details {
			display: none;
		}
	}

</style>
<g id="moutains">
	<circle id="circle" class="st0" cx="149.8" cy="150.7" r="122.3"/>
	<path id="mountain" class="st1" d="M124.6,98l-54.9,90.2c-0.5,0.8,0.1,1.9,1,1.9h148.9c0.8,0,1.4-0.8,1.1-1.6l-41.8-114
		c-0.4-1.4-2.4-1.6-3.1-0.3l-25.6,49.3c-0.4,0.8-1.5,0.8-2,0.2L127.6,98C126.9,96.9,125.3,96.9,124.6,98z"/>
</g>
<g id="details">
	<path id="iceCaps" class="st1" d="M108.2,125l-38.6,63.3c-0.5,0.8,0.1,1.9,1,1.9h148.9c0.8,0,1.4-0.8,1.1-1.6l-22.2-60.3
		c-0.4-1.2-11.5-8-16.5-10.4c-1.3-0.6-2.7-0.4-3.8,0.6l-13,11.8c-0.7,0.6-1.6,0.8-2.5,0.6c-3.2-0.8-9.7-4.1-12.5-6.1
		c-0.6-0.4-1.3-0.7-1.9-0.4l-17.3,9.3c-2,1.1-4.4,1-6.3-0.2C119.4,130.1,108.8,124.1,108.2,125z"/>
</g>
</svg>
