<?xml version="1.0" encoding="utf-8"?>
<!-- Generator: Adobe Illustrator 22.1.0, SVG Export Plug-In . SVG Version: 6.00 Build 0)  -->
<svg version="1.1" class="mainIcon" xmlns="http://www.w3.org/2000/svg" xmlns:xlink="http://www.w3.org/1999/xlink" x="0px" y="0px"
	 viewBox="0 0 300 300" style="enable-background:new 0 0 300 300;" xml:space="preserve">
<style type="text/css">
	.st0{fill:#FEDB75;stroke:#000000;stroke-miterlimit:10;}
	.st1{fill:#FFFFFF;stroke:#000000;stroke-miterlimit:10;}
	.st2{fill:none;stroke:#000000;stroke-miterlimit:10;}

	#details {
		display:block;
	}

	@media screen and (max-width: 100px) {
		#details {
			display: none;
		}
	}

</style>
<g id="picnicTable">
	<circle id="circle" class="st0" cx="150" cy="151.2" r="122.3"/>
	<path id="table" class="st1" d="M229.6,153h-45.4l-16-27.7h33c4.2,0,7.7-3.5,7.7-7.7s-3.5-7.7-7.7-7.7H98.6c-4.2,0-7.7,3.5-7.7,7.7
		s3.5,7.7,7.7,7.7H131L115,153H70.5c-4.2,0-7.7,3.5-7.7,7.7l0,0c0,4.2,3.5,7.7,7.7,7.7h35.6l-15.3,26.5c-1.1,1.8-0.4,4.2,1.4,5.3
		l0,0c1.8,1.1,4.2,0.4,5.3-1.4l17.5-30.3h69l17.6,30.5c1.1,1.8,3.4,2.5,5.3,1.4s2.5-3.4,1.4-5.3L193,168.3h36.6
		c4.2,0,7.7-3.5,7.7-7.7l0,0C237.3,156.4,233.8,153,229.6,153z M123.9,153l16-27.7h19.3l16,27.7H123.9z"/>
</g>
<g id="details">
	<line id="topLine" class="st2" x1="128.2" y1="125.3" x2="173.5" y2="125.3"/>
	<line id="middleLine" class="st2" x1="112.9" y1="153" x2="187.2" y2="153"/>
	<line id="bottomeRightLine" class="st2" x1="102.8" y1="168.3" x2="117.1" y2="168.3"/>
	<line id="bottomRightLine" class="st2" x1="181.2" y1="168.3" x2="195.9" y2="168.3"/>
</g>
</svg>
