<?xml version="1.0" encoding="utf-8"?>
<!-- Generator: Adobe Illustrator 22.1.0, SVG Export Plug-In . SVG Version: 6.00 Build 0)  -->
<svg version="1.1" id="tentIcon" class="mainIcon" xmlns="http://www.w3.org/2000/svg" xmlns:xlink="http://www.w3.org/1999/xlink" x="0px" y="0px"
	 viewBox="0 0 300 300" style="enable-background:new 0 0 300 300;" xml:space="preserve">
<style type="text/css">
	.st0{fill:#FEDB75;stroke:#000000;stroke-miterlimit:10;}
	.st1{fill:#FFFFFF;stroke:#000000;stroke-miterlimit:10;}
	.st2{fill:none;stroke:#000000;stroke-miterlimit:10;}

	#details {
		display:block;
	}

	@media screen and (max-width: 100px) {
		#details {
			display: none;
		}
	}

</style>
<g id="tent">
	<circle id="circle" class="st0" cx="149.6" cy="150.8" r="122.3"/>
	<path id="tent_1_" class="st1" d="M153.7,82.3l7.9-14.9c0.7-1.3,0.2-2.9-1.1-3.6c-1.3-0.7-2.9-0.2-3.6,1.1l-6.5,12.2l-7.2-12.4
		c-0.7-1.3-2.4-1.7-3.7-1c-1.3,0.7-1.7,2.4-1,3.7l8.8,15.3l-0.7,1.4L131,112.3l-51.6,89.3h42.5l29-54.9l28.8,54.9l42.8-0.2
		L153.7,82.3z"/>
</g>
<g id="details">
	<polyline id="tentDoor" class="st2" points="113.7,201.7 151,132.4 188.1,201.4 	"/>
</g>
</svg>
