<?xml version="1.0" encoding="utf-8"?>
<!-- Generator: Adobe Illustrator 22.1.0, SVG Export Plug-In . SVG Version: 6.00 Build 0)  -->
<svg version="1.1" id="treesIcon" class="mainIcon" xmlns="http://www.w3.org/2000/svg" xmlns:xlink="http://www.w3.org/1999/xlink" x="0px" y="0px"
	 viewBox="0 0 300 300" style="enable-background:new 0 0 300 300;" xml:space="preserve">
<style type="text/css">
	.st0{fill:#FEDB75;stroke:#000000;stroke-miterlimit:10;}
	.st1{fill:#FFFFFF;stroke:#000000;stroke-miterlimit:10;}
	.st2{fill:none;stroke:#000000;stroke-miterlimit:10;}

	#details {
		display:block;
	}

	@media screen and (max-width: 100px) {
		#details {
			display: none;
		}
	}
	
</style>
<g id="trees">
	<circle id="circle" class="st0" cx="150.8" cy="150.6" r="122.3"/>
	<path id="leftTree" class="st1" d="M156.1,174.6l-15.4-23.9c-0.4-0.6-0.1-1.5,0.7-1.7c2.5-0.6,5-1.3,7.6-2.1c0.7-0.2,1-1,0.6-1.6
		l-15.9-24.7c-0.4-0.6-0.1-1.5,0.7-1.7c1.6-0.4,3.3-0.8,4.9-1.3c0.7-0.2,1-1,0.6-1.7l-21.7-33.6c-0.4-0.7-1.4-0.7-1.9,0L95.1,116
		c-0.4,0.6-0.1,1.4,0.6,1.6c1,0.3,2.6,0.8,4.6,1.3c0.7,0.2,1.1,1,0.7,1.7l-15.5,24.7c-0.4,0.6-0.1,1.4,0.6,1.6
		c1.4,0.5,4,1.3,7.4,2.2c0.7,0.2,1.1,1,0.7,1.7l-15,23.9c-0.4,0.6-0.1,1.4,0.6,1.6c3.4,1.2,13.3,4.4,27.4,5.6c0.6,0,1,0.5,1,1.1
		v21.7c0,0.6,0.5,1.1,1.1,1.1H125c0.6,0,1.1-0.5,1.1-1.1V183c0-0.6,0.4-1,1-1.1c8.8-0.7,18.4-2.4,28.5-5.6
		C156.2,176,156.5,175.2,156.1,174.6z"/>
	<path id="rightTree" class="st1" d="M223.5,175.2L207,149.8c-0.2-0.3,0-0.6,0.3-0.7c3-0.7,6.1-1.5,9.3-2.6c0.3-0.1,0.4-0.4,0.2-0.7
		L200,119.7c-0.2-0.3,0-0.6,0.3-0.7c2.2-0.5,4.4-1.1,6.7-1.8c0.3-0.1,0.4-0.4,0.2-0.7l-22.7-35.2c-0.2-0.3-0.6-0.3-0.7,0l-22.1,35.2
		c-0.1,0.2,0,0.6,0.2,0.6c0.9,0.3,3.1,1.1,6.3,1.8c0.3,0.1,0.4,0.4,0.3,0.7l-16.4,26.2c-0.1,0.2,0,0.5,0.2,0.6
		c1.2,0.4,4.3,1.6,9.1,2.7c0.3,0.1,0.4,0.4,0.3,0.7l-15.9,25.4c-0.1,0.2,0,0.5,0.2,0.6c2.4,0.9,13.1,4.7,28.8,5.9
		c0.2,0,0.4,0.2,0.4,0.4V205c0,0.2,0.2,0.4,0.4,0.4h17c0.2,0,0.4-0.2,0.4-0.4v-22.9c0-0.2,0.2-0.4,0.4-0.4
		c9.2-0.7,19.3-2.4,29.9-5.9C223.5,175.8,223.6,175.4,223.5,175.2z"/>
	<path id="middleTree" class="st1" d="M189.5,183.7l-15.4-23.9c-0.4-0.6-0.1-1.5,0.7-1.7c2.5-0.6,5-1.3,7.6-2.1c0.7-0.2,1-1,0.6-1.7
		l-16-24.6c-0.4-0.6-0.1-1.5,0.7-1.7c1.6-0.4,3.2-0.8,4.9-1.3c0.7-0.2,1-1,0.6-1.7l-21.7-33.6c-0.4-0.7-1.4-0.7-1.9,0L128.5,125
		c-0.4,0.6-0.1,1.4,0.6,1.6c1,0.3,2.6,0.8,4.6,1.3c0.7,0.2,1.1,1,0.7,1.7l-15.5,24.7c-0.4,0.6-0.1,1.4,0.6,1.6
		c1.4,0.5,3.9,1.3,7.4,2.2c0.7,0.2,1.1,1,0.7,1.7l-15,23.9c-0.4,0.6-0.1,1.4,0.6,1.6c3.4,1.2,13.3,4.4,27.4,5.6c0.6,0,1,0.5,1,1.1
		v21.6c0,0.6,0.5,1.1,1.1,1.1h15.7c0.6,0,1.1-0.5,1.1-1.1V192c0-0.6,0.4-1.1,1-1.1c8.8-0.7,18.4-2.4,28.5-5.6
		C189.6,185.1,189.9,184.3,189.5,183.7z"/>
</g>
<g id="details">
	<path id="middleLine_2_" class="st2" d="M132.7,127.8c0,0,15.7,5,35.5,0.1"/>
	<path id="middleLine_1_" class="st2" d="M123.2,157.3c0,0,24,7.3,54.7,0"/>
	<path id="middleLine" class="st2" d="M125.9,188.9c0,0,23.7,5.7,50.6-0.1"/>
	<path id="leftLine_2_" class="st2" d="M99.2,118.7c0,0,18.1,4.7,32.6,0.9"/>
	<path id="leftLine_1_" class="st2" d="M92.8,148.9c0,0,14.2,3.5,28.1,2.4"/>
	<path id="leftLine" class="st2" d="M106.4,181.8c0,0,3.6,0.5,7.1,0.5"/>
	<path id="rightLine_2_" class="st2" d="M169.8,119.7c0,0,14,2.5,31.4-0.8"/>
	<path id="rightLine_1_" class="st2" d="M181.1,151.4c0,0,9.3,1.2,28-2.7"/>
	<path id="rightLine" class="st2" d="M188.6,182.2c0,0,2.8-0.2,6-0.5"/>
</g>
</svg>
