<?xml version="1.0" encoding="utf-8"?>
<!-- Generator: Adobe Illustrator 22.1.0, SVG Export Plug-In . SVG Version: 6.00 Build 0)  -->
<svg version="1.1" id="waterIcon" class="mainIcon" xmlns="http://www.w3.org/2000/svg" xmlns:xlink="http://www.w3.org/1999/xlink" x="0px" y="0px"
	 viewBox="0 0 300 300" style="enable-background:new 0 0 300 300;" xml:space="preserve">
<style type="text/css">
	.st0{fill:#FEDB75;stroke:#000000;stroke-miterlimit:10;}
	.st1{fill:#FFFFFF;stroke:#000000;stroke-miterlimit:10;}

	#details {
		display:block;
	}

	@media screen and (max-width: 100px) {
		#details {
			display: none;
		}
	}

</style>
<g id="water">
	<circle id="circle" class="st0" cx="149.7" cy="150.8" r="122.3"/>
	<path id="topWave" class="st1" d="M61.8,155.1L61.8,155.1c0,4.6,3,8.7,7.8,10.7l0,0c25.8,10.7,55.3,13.1,83,6.7l11.7-2.7
		c20-4.6,41.3-2.6,59.7,5.6l1.3,0.6c6.7,3,14.7-1.2,14.7-7.7l0,0c0-3.3-2.1-6.4-5.6-7.9l0,0c-19.7-8.9-33.2-13.5-54.2-12
		c-0.3,0-0.6,0-0.9,0c-6.7,0-10.8-4.6-11.1-10.7c-0.2-3.8,1.3-7.5,3.8-10.3l12.7-14.4c-58.4,5.6-61.3,47.5-104.4,37.4L75,148
		C68.9,145.4,61.8,149.3,61.8,155.1z"/>
</g>
<g id="details">
	<path id="bottomWave" class="st1" d="M60.7,180.9L60.7,180.9c0,4.6,3,8.7,7.8,10.7l0,0c25.8,10.7,55.3,13.1,83,6.7l11.7-2.7
		c20-4.6,41.3-2.6,59.7,5.6l1.3,0.6c6.7,3,14.7-1.2,14.7-7.7l0,0c0-3.3-2.1-6.4-5.6-7.9l0,0c-25.1-11.3-54.3-14.1-81.7-7.8
		l-11.6,2.7c-20.3,4.7-41.8,2.9-60.7-5l-5.4-2.3C67.9,171.3,60.8,175.1,60.7,180.9z"/>
</g>
</svg>
